<svg width="16" height="16" viewBox="0 0 16 16" fill="none" xmlns="http://www.w3.org/2000/svg">
<path d="M9.00902 2.36313C9.00902 2.01723 8.72861 1.73682 8.3827 1.73682H7.75639C7.41048 1.73682 7.13007 2.01723 7.13007 2.36313V7.06049H2.43271C2.08681 7.06049 1.8064 7.34091 1.8064 7.68681V8.31312C1.8064 8.65903 2.08681 8.93944 2.43271 8.93944H7.13007V13.6368C7.13007 13.9827 7.41049 14.2631 7.75639 14.2631H8.3827C8.72861 14.2631 9.00902 13.9827 9.00902 13.6368V8.93944H13.7064C14.0523 8.93944 14.3327 8.65903 14.3327 8.31312V7.68681C14.3327 7.3409 14.0523 7.06049 13.7064 7.06049H9.00902V2.36313Z" fill="black"/>
</svg>
